<svg xmlns="http://www.w3.org/2000/svg" xmlns:xlink="http://www.w3.org/1999/xlink" width="1080" zoomAndPan="magnify" viewBox="0 0 810 809.999993" height="1080" preserveAspectRatio="xMidYMid meet" version="1.0"><defs><clipPath id="f26d9d1791"><path d="M 9.785156 9.785156 L 800.285156 9.785156 L 800.285156 800.285156 L 9.785156 800.285156 Z M 9.785156 9.785156 " clip-rule="nonzero"/></clipPath><clipPath id="627f7912ec"><path d="M 106.21875 140.441406 L 703.96875 140.441406 L 703.96875 669.191406 L 106.21875 669.191406 Z M 106.21875 140.441406 " clip-rule="nonzero"/></clipPath></defs><g clip-path="url(#f26d9d1791)"><path fill="#e83354" d="M 405.035156 9.785156 C 186.746094 9.785156 9.785156 186.746094 9.785156 405.035156 C 9.785156 623.328125 186.746094 800.285156 405.035156 800.285156 C 623.328125 800.285156 800.285156 623.328125 800.285156 405.035156 C 800.285156 186.746094 623.328125 9.785156 405.035156 9.785156 " fill-opacity="1" fill-rule="nonzero"/></g><g clip-path="url(#627f7912ec)"><path fill="#ffffff" d="M 201.355469 140.441406 C 199.769531 140.441406 198.179688 140.441406 196.46875 140.566406 C 189.628906 141.054688 184.375 141.664062 179.609375 142.761719 C 174.234375 144.105469 169.34375 146.179688 165.191406 148.011719 C 156.148438 152.039062 148.328125 158.019531 141.855469 163.269531 C 137.332031 167.050781 133.179688 171.203125 129.269531 176.082031 C 125.117188 181.453125 120.71875 187.191406 117.664062 193.414062 C 114.851562 199.03125 111.554688 206.476562 109.71875 214.164062 C 108.011719 221.488281 106.910156 228.691406 106.667969 235.648438 C 106.300781 244.191406 107.277344 252.371094 108.253906 258.472656 C 109.230469 264.695312 110.574219 270.066406 112.285156 274.949219 C 115.339844 283.371094 118.394531 289.960938 121.9375 295.699219 C 125.972656 302.167969 130.246094 308.027344 134.769531 313.03125 C 137.457031 315.960938 140.386719 319.011719 143.441406 321.941406 C 141.121094 326.214844 138.800781 330.851562 136.601562 335.976562 C 129.148438 353.066406 124.625 368.445312 122.550781 382.726562 C 121.082031 392.980469 120.226562 403.109375 120.226562 412.628906 C 120.105469 414.214844 119.984375 415.804688 119.863281 417.269531 C 119.496094 423.492188 119.25 428.621094 119.371094 433.257812 C 119.496094 439.480469 119.863281 444.851562 120.226562 449.734375 C 120.351562 458.765625 121.082031 468.410156 122.550781 478.296875 C 124.625 492.578125 129.269531 507.957031 136.601562 525.042969 C 142.832031 539.570312 151.261719 553.726562 161.648438 567.152344 C 170.324219 578.261719 180.953125 588.878906 196.46875 601.574219 C 217.605469 618.90625 244.242188 633.429688 277.964844 646.246094 C 290.304688 650.882812 305.089844 656.132812 320.726562 659.429688 C 333.066406 661.992188 344.066406 663.578125 354.207031 664.3125 C 361.167969 665.410156 368.257812 666.386719 375.464844 667.117188 C 388.90625 668.460938 402.832031 669.191406 416.640625 669.191406 C 426.535156 669.191406 436.679688 668.828125 446.941406 668.09375 L 449.019531 668.09375 C 563.867188 668.09375 659.902344 582.167969 672.609375 468.289062 C 674.078125 458.644531 674.808594 448.757812 674.808594 438.992188 C 674.808594 412.628906 669.554688 386.632812 659.292969 361.976562 C 657.949219 357.828125 656.480469 353.554688 654.773438 349.28125 C 662.957031 342.8125 669.800781 336.464844 675.421875 329.996094 C 679.820312 324.992188 684.21875 319.132812 688.25 312.664062 C 691.914062 306.929688 694.96875 300.335938 697.902344 291.914062 C 699.613281 287.035156 700.957031 281.664062 701.933594 275.4375 C 702.910156 269.214844 703.886719 261.035156 703.523438 252.613281 C 703.15625 245.65625 702.179688 238.453125 700.34375 231.253906 C 698.511719 223.5625 695.089844 216.117188 692.402344 210.503906 C 689.347656 204.15625 684.949219 198.421875 680.796875 193.171875 C 676.886719 188.289062 672.855469 184.140625 668.210938 180.355469 C 661.734375 174.984375 653.792969 169.003906 644.875 165.097656 C 640.476562 163.144531 635.710938 161.070312 630.457031 159.851562 C 629.234375 159.605469 627.890625 159.238281 626.304688 158.996094 C 617.507812 156.433594 608.464844 155.210938 599.300781 155.210938 C 565.578125 155.210938 534.667969 172.300781 516.707031 200.859375 L 515.730469 202.082031 L 514.75 203.300781 C 511.453125 207.574219 508.644531 212.578125 506.566406 218.070312 C 492.148438 212.335938 479.929688 208.308594 468.199219 205.378906 C 459.402344 203.179688 450.238281 201.347656 440.832031 200.25 C 439.609375 200.128906 438.265625 200.007812 437.042969 199.886719 L 436.3125 199.761719 C 434.722656 199.519531 433.132812 199.273438 431.546875 199.03125 C 420.0625 197.199219 407.84375 196.46875 391.714844 196.46875 C 389.515625 196.46875 387.316406 196.46875 385.117188 196.46875 C 382.429688 196.46875 379.742188 196.589844 377.054688 196.710938 C 374.855469 196.589844 372.777344 196.589844 370.578125 196.46875 L 369.96875 196.46875 C 369.234375 196.46875 368.621094 196.46875 367.890625 196.46875 C 353.839844 196.46875 338.6875 198.175781 320.484375 201.960938 C 315.351562 203.058594 310.097656 204.402344 304.84375 205.867188 C 302.644531 198.421875 299.46875 192.074219 295.070312 186.457031 L 294.09375 185.238281 C 291.160156 181.453125 287.984375 177.304688 284.441406 173.765625 C 280.773438 170.101562 276.742188 166.929688 272.832031 164 C 266.722656 159.363281 259.882812 155.335938 252.304688 152.160156 C 243.386719 148.132812 234.589844 144.59375 224.691406 142.882812 C 215.285156 141.175781 208.078125 140.441406 201.355469 140.441406 Z M 201.355469 140.441406 " fill-opacity="1" fill-rule="nonzero"/></g><path fill="#e83354" d="M 247.417969 385.289062 C 241.308594 388.949219 237.15625 395.054688 234.46875 401.402344 C 231.902344 407.382812 230.070312 413.726562 228.601562 420.074219 C 227.746094 423.859375 227.625 427.886719 227.382812 431.792969 C 227.136719 435.699219 228.238281 439.359375 228.96875 443.144531 C 229.703125 446.683594 231.65625 449.980469 233.367188 453.152344 C 234.957031 456.082031 237.523438 458.402344 239.84375 460.71875 C 240.332031 461.207031 240.945312 461.695312 241.554688 462.0625 C 241.675781 462.183594 241.796875 462.308594 241.921875 462.308594 C 243.753906 463.894531 245.832031 465.113281 247.90625 465.96875 C 249.25 466.578125 250.71875 467.066406 251.941406 467.3125 C 252.183594 467.3125 252.429688 467.3125 252.550781 467.433594 C 254.140625 467.675781 255.847656 467.921875 257.558594 467.921875 C 261.46875 468.042969 266.96875 466.578125 270.265625 464.136719 C 272.953125 462.0625 275.519531 459.988281 277.597656 457.179688 C 279.917969 454.007812 281.628906 451.078125 283.097656 447.414062 C 285.785156 441.191406 287.738281 434.234375 288.351562 427.519531 C 288.714844 423.613281 288.960938 419.832031 288.59375 416.046875 C 288.351562 412.386719 287.371094 408.722656 286.515625 405.0625 C 285.660156 401.765625 283.953125 398.59375 282.363281 395.785156 C 281.753906 394.808594 281.140625 393.953125 280.40625 393.222656 C 278.820312 391.390625 277.355469 389.5625 275.519531 387.851562 C 271.121094 383.824219 265.378906 381.75 259.636719 381.75 C 255.484375 381.871094 251.207031 383.09375 247.417969 385.289062 Z M 247.417969 385.289062 " fill-opacity="1" fill-rule="nonzero"/><path fill="#e83354" d="M 388.90625 408.847656 C 382.308594 409.824219 375.832031 411.652344 370.332031 415.558594 C 368.988281 416.167969 367.769531 416.902344 366.546875 417.632812 C 364.589844 418.855469 362.878906 420.5625 361.171875 422.273438 C 357.382812 426.179688 355.183594 432.769531 355.550781 438.140625 C 355.917969 442.777344 357.136719 446.683594 359.824219 450.46875 C 362.515625 454.25 365.691406 456.8125 369.476562 459.253906 C 375.34375 463.039062 382.308594 465.113281 389.027344 466.945312 C 392.816406 468.042969 397.089844 468.289062 401 468.410156 C 405.03125 468.53125 408.699219 467.921875 412.730469 467.066406 C 419.328125 465.722656 425.558594 462.917969 431.179688 459.132812 C 434.84375 456.691406 438.511719 452.910156 440.585938 448.878906 C 443.152344 443.753906 443.765625 437.40625 442.054688 431.914062 C 439.488281 423.613281 432.644531 417.757812 424.703125 414.460938 C 415.785156 410.800781 406.011719 408.234375 396.359375 408.234375 C 393.792969 408.234375 391.347656 408.480469 388.90625 408.847656 Z M 388.90625 408.847656 " fill-opacity="1" fill-rule="nonzero"/><path fill="#e83354" d="M 521.59375 390.050781 C 517.316406 391.269531 513.042969 394.199219 510.476562 397.738281 C 509.132812 399.324219 508.03125 401.035156 507.175781 402.863281 C 506.566406 404.207031 506.078125 405.671875 505.589844 407.015625 C 504.246094 410.800781 503.023438 414.460938 502.289062 418.367188 C 501.433594 422.394531 501.3125 426.542969 501.066406 430.570312 C 500.945312 435.089844 501.800781 439.605469 502.777344 444 C 504.121094 450.101562 506.445312 456.324219 510.351562 461.207031 C 511.699219 462.796875 513.042969 464.382812 514.507812 465.96875 C 515.851562 467.433594 518.90625 469.628906 520.25 470.242188 C 522.570312 471.21875 524.894531 472.195312 527.457031 472.558594 C 530.757812 473.046875 534.910156 473.046875 538.089844 471.828125 C 539.921875 471.09375 541.632812 470.242188 543.34375 469.386719 C 545.296875 468.164062 547.007812 466.457031 548.71875 464.871094 C 549.941406 463.285156 551.039062 461.574219 552.140625 459.867188 C 552.871094 458.644531 553.484375 457.425781 554.214844 456.082031 C 557.757812 448.757812 559.105469 440.214844 558.738281 432.160156 C 558.613281 428.617188 557.636719 425.078125 556.78125 421.660156 C 556.414062 420.195312 555.925781 418.734375 555.4375 417.390625 C 555.070312 415.558594 554.582031 413.851562 553.972656 412.019531 C 551.160156 403.964844 545.542969 396.394531 538.210938 392.003906 C 535.035156 390.050781 531.367188 389.074219 527.824219 389.074219 C 525.503906 389.195312 523.550781 389.4375 521.59375 390.050781 Z M 521.59375 390.050781 " fill-opacity="1" fill-rule="nonzero"/><path fill="#e83354" d="M 392.203125 487.207031 C 390.617188 488.0625 389.148438 489.28125 387.925781 490.746094 C 386.828125 491.964844 385.726562 493.066406 384.75 494.285156 C 382.0625 497.460938 379.253906 500.511719 376.6875 503.683594 C 371.554688 510.152344 366.421875 516.621094 361.292969 523.089844 C 359.703125 525.167969 359.335938 528.339844 359.824219 530.78125 C 360.4375 533.34375 361.902344 535.539062 364.101562 537.003906 C 366.300781 538.46875 369.113281 538.957031 371.800781 538.46875 C 374.488281 537.859375 376.320312 536.273438 378.03125 534.199219 C 384.261719 526.386719 390.492188 518.332031 396.847656 510.519531 C 397.457031 509.785156 398.070312 509.175781 398.679688 508.445312 C 402.957031 512.472656 407.109375 516.5 411.386719 520.648438 C 415.90625 525.042969 420.183594 529.683594 424.582031 534.320312 C 428.371094 538.226562 434.601562 538.835938 438.753906 535.050781 C 442.785156 531.511719 443.398438 524.800781 439.488281 520.894531 C 434.601562 515.890625 429.835938 510.761719 424.828125 505.882812 C 422.628906 503.683594 420.429688 501.488281 418.105469 499.414062 C 416.394531 497.824219 414.683594 496.117188 412.976562 494.53125 C 411.140625 492.820312 409.308594 491.234375 407.230469 489.648438 C 406.5 489.160156 405.886719 488.671875 405.15625 488.183594 C 403.199219 486.960938 401.246094 486.351562 399.046875 485.984375 C 398.433594 485.863281 397.945312 485.863281 397.335938 485.863281 C 395.625 486.109375 393.671875 486.472656 392.203125 487.207031 Z M 392.203125 487.207031 " fill-opacity="1" fill-rule="nonzero"/><path fill="#e83354" d="M 392.203125 443.023438 C 390.371094 444.609375 388.660156 447.414062 388.90625 449.980469 C 389.761719 464.015625 390.003906 478.175781 390.371094 492.332031 C 390.492188 495.140625 390.980469 497.460938 392.9375 499.535156 C 394.769531 501.488281 397.214844 502.707031 399.902344 502.828125 C 402.589844 502.953125 405.15625 502.097656 407.109375 500.265625 C 408.941406 498.558594 410.53125 495.871094 410.410156 493.308594 C 410.042969 479.152344 409.796875 465.113281 408.941406 450.957031 C 408.820312 450.101562 408.820312 449.125 408.699219 448.269531 C 408.332031 446.5625 407.597656 444.976562 406.378906 443.753906 C 404.542969 441.800781 402.101562 440.582031 399.414062 440.457031 C 399.167969 440.457031 399.046875 440.457031 398.800781 440.457031 C 396.480469 440.457031 394.035156 441.433594 392.203125 443.023438 Z M 392.203125 443.023438 " fill-opacity="1" fill-rule="nonzero"/><path fill="#ffffff" d="M 147.351562 373.570312 C 144.054688 375.035156 141.367188 377.84375 140.023438 381.261719 C 138.554688 384.921875 138.921875 388.585938 140.265625 392.246094 C 142.953125 399.449219 152.238281 402.378906 158.960938 399.324219 C 162.257812 397.859375 164.945312 395.054688 166.289062 391.636719 C 167.757812 387.972656 167.390625 384.3125 166.046875 380.652344 C 163.234375 373.449219 153.949219 370.519531 147.351562 373.570312 Z M 147.351562 373.570312 " fill-opacity="1" fill-rule="nonzero"/><path fill="#ffffff" d="M 198.914062 340.859375 C 196.957031 335.613281 191.949219 331.339844 186.816406 329.265625 C 181.320312 327.066406 174.964844 327.191406 169.589844 329.632812 C 164.335938 331.949219 160.179688 336.34375 157.980469 341.714844 C 155.660156 347.453125 156.273438 353.1875 158.347656 358.925781 C 160.304688 364.171875 165.3125 368.445312 170.445312 370.519531 C 175.941406 372.71875 182.296875 372.59375 187.671875 370.152344 C 192.925781 367.835938 197.082031 363.441406 199.28125 358.070312 C 201.601562 352.210938 201.113281 346.476562 198.914062 340.859375 Z M 198.914062 340.859375 " fill-opacity="1" fill-rule="nonzero"/></svg>