<svg xmlns="http://www.w3.org/2000/svg" xmlns:xlink="http://www.w3.org/1999/xlink" width="1080" zoomAndPan="magnify" viewBox="0 0 810 809.999993" height="1080" preserveAspectRatio="xMidYMid meet" version="1.0"><defs><clipPath id="e763ac2518"><path d="M 14.347656 65.132812 L 670 65.132812 L 670 584 L 14.347656 584 Z M 14.347656 65.132812 " clip-rule="nonzero"/></clipPath><clipPath id="5aedee1d76"><path d="M 456 405 L 795.847656 405 L 795.847656 744.632812 L 456 744.632812 Z M 456 405 " clip-rule="nonzero"/></clipPath></defs><path fill="#e83354" d="M 236.53125 299.355469 C 271.003906 299.109375 298.375 271.484375 298.375 237.03125 C 298.375 202.335938 270.460938 174.460938 236.011719 174.734375 C 201.785156 174.980469 174.167969 202.851562 174.167969 237.03125 C 174.167969 271.214844 202.058594 299.355469 236.53125 299.355469 " fill-opacity="1" fill-rule="nonzero"/><path fill="#e83354" d="M 539.191406 399.582031 C 505.925781 416.265625 477.742188 442.242188 458.382812 473.710938 L 323.625 473.710938 C 305.699219 473.710938 287.597656 473.464844 269.671875 473.144531 L 238.824219 473.144531 C 233.25 473.613281 227.628906 474.328125 221.832031 473.710938 C 221.511719 473.710938 221.292969 473.710938 220.722656 473.464844 C 220.402344 473.464844 220.109375 473.316406 219.640625 473.144531 L 109.785156 473.144531 L 109.785156 459.789062 C 109.785156 427.527344 135.921875 401.382812 168.175781 401.382812 L 267.796875 401.382812 C 280.867188 383.246094 291.988281 367.667969 292.308594 367.199219 C 300.445312 355.148438 311.492188 348.25 323.082031 348.25 C 340.21875 348.25 348.925781 366.414062 362.3125 374.078125 C 379.921875 384.328125 391.507812 370.625 400.214844 356.703125 C 406.007812 347.460938 412.027344 338 417.820312 328.535156 C 421.273438 323.0625 424.945312 317.273438 428.324219 311.480469 C 432.542969 304.902344 436.78125 298.320312 441 291.519531 L 449.382812 277.816406 C 450.171875 276.734375 450.714844 275.945312 451.257812 274.933594 C 454.390625 270.472656 458.0625 267.566406 460.972656 267.566406 C 463.636719 267.566406 466.769531 270.472656 469.652344 275.15625 C 492.832031 316.558594 516.183594 358.429688 539.191406 399.582031 " fill-opacity="1" fill-rule="nonzero"/><g clip-path="url(#e763ac2518)"><path fill="#e83354" d="M 14.628906 65.585938 L 14.628906 583.105469 L 429.953125 583.105469 C 429.804688 579.359375 429.730469 575.515625 429.730469 571.671875 C 429.804688 560.410156 430.914062 549.367188 433.011719 538.574219 L 59.1875 538.574219 L 59.1875 110.117188 L 624.929688 110.117188 L 624.929688 378.609375 L 626.828125 378.609375 C 641.449219 378.710938 655.800781 380.335938 669.484375 383.539062 L 669.484375 65.585938 L 14.628906 65.585938 " fill-opacity="1" fill-rule="nonzero"/></g><g clip-path="url(#5aedee1d76)"><path fill="#e83354" d="M 730.292969 651.8125 L 549.203125 470.605469 C 579.136719 448.820312 611.5625 440.789062 645.765625 446.777344 C 697.597656 455.84375 732.339844 485.320312 749.058594 534.382812 C 762.894531 574.949219 756.582031 614.429688 730.292969 651.8125 Z M 609.269531 703.367188 C 555.464844 695.210938 519.5625 665.167969 502.546875 614.035156 C 489.15625 573.816406 495.542969 534.851562 521.535156 498.132812 L 702.628906 679.242188 C 674.34375 700.359375 642.902344 708.445312 609.269531 703.367188 Z M 626.679688 405.351562 L 625.964844 405.351562 C 534.703125 405.351562 457.078125 481.695312 456.460938 572.066406 C 455.792969 667.535156 529.128906 743.117188 623.398438 744.152344 L 625.398438 744.175781 C 670.792969 744.175781 713.355469 726.878906 745.261719 695.457031 C 777.515625 663.714844 795.367188 621.179688 795.566406 575.664062 C 795.933594 482.140625 720.160156 405.742188 626.679688 405.351562 " fill-opacity="1" fill-rule="nonzero"/></g></svg>