<svg xmlns="http://www.w3.org/2000/svg" xmlns:xlink="http://www.w3.org/1999/xlink" width="1080" zoomAndPan="magnify" viewBox="0 0 810 809.999993" height="1080" preserveAspectRatio="xMidYMid meet" version="1.0"><defs><clipPath id="3d7035fbe0"><path d="M 41 41.097656 L 773 41.097656 L 773 772.347656 L 41 772.347656 Z M 41 41.097656 " clip-rule="nonzero"/></clipPath></defs><path fill="#000000" d="M 465.335938 407.128906 L 764.109375 705.773438 L 705.667969 764.1875 L 406.894531 465.542969 L 108.117188 764.1875 L 49.679688 705.773438 L 348.453125 407.128906 L 49.679688 108.488281 L 108.117188 50.074219 L 406.894531 348.714844 L 705.667969 50.074219 L 764.109375 108.488281 Z M 465.335938 407.128906 " fill-opacity="1" fill-rule="nonzero"/><g clip-path="url(#3d7035fbe0)"><path fill="#000000" d="M 705.667969 772.347656 C 703.585938 772.347656 701.484375 771.550781 699.894531 769.960938 L 406.894531 477.09375 L 113.894531 769.960938 C 112.363281 771.488281 110.28125 772.347656 108.117188 772.347656 C 105.953125 772.347656 103.871094 771.488281 102.34375 769.960938 L 43.902344 711.546875 C 40.71875 708.363281 40.71875 703.199219 43.902344 699.996094 L 336.898438 407.128906 L 43.902344 114.261719 C 40.71875 111.082031 40.71875 105.917969 43.902344 102.714844 L 102.34375 44.300781 C 103.871094 42.769531 105.953125 41.914062 108.117188 41.914062 C 110.28125 41.914062 112.363281 42.769531 113.894531 44.300781 L 406.894531 337.167969 L 699.894531 44.300781 C 703.078125 41.117188 708.242188 41.117188 711.445312 44.300781 L 769.886719 102.714844 C 773.070312 105.898438 773.070312 111.058594 769.886719 114.261719 L 476.886719 407.128906 L 769.886719 699.996094 C 771.417969 701.527344 772.273438 703.609375 772.273438 705.773438 C 772.273438 707.933594 771.417969 710.015625 769.886719 711.546875 L 711.445312 769.960938 C 709.855469 771.550781 707.75 772.347656 705.667969 772.347656 Z M 406.894531 457.382812 C 408.976562 457.382812 411.078125 458.179688 412.671875 459.769531 L 705.667969 752.636719 L 752.554688 705.773438 L 459.558594 412.90625 C 458.027344 411.375 457.167969 409.292969 457.167969 407.128906 C 457.167969 404.96875 458.027344 402.886719 459.558594 401.355469 L 752.554688 108.488281 L 705.667969 61.621094 L 412.671875 354.488281 C 409.488281 357.671875 404.300781 357.671875 401.117188 354.488281 L 108.117188 61.621094 L 61.230469 108.488281 L 354.230469 401.355469 C 357.414062 404.539062 357.414062 409.699219 354.230469 412.90625 L 61.230469 705.773438 L 108.117188 752.636719 L 401.117188 459.769531 C 402.710938 458.179688 404.8125 457.382812 406.894531 457.382812 Z M 406.894531 457.382812 " fill-opacity="1" fill-rule="nonzero"/></g></svg>